<svg width="24" height="24" viewBox="0 0 24 24" fill="none" xmlns="http://www.w3.org/2000/svg">
  <path d="M16.752 3.312C17.472 3.312 18.144 3.448 18.768 3.72C19.392 3.992 19.936 4.36 20.4 4.824C20.864 5.288 21.232 5.832 21.504 6.456C21.776 7.08 21.92 7.752 21.936 8.472C21.952 9.528 21.72 10.648 21.24 11.832C20.76 13 20.08 14.152 19.2 15.288C18.32 16.408 17.264 17.464 16.032 18.456C14.816 19.432 13.472 20.256 12 20.928C10.528 20.256 9.176 19.432 7.944 18.456C6.728 17.464 5.68 16.408 4.8 15.288C3.92 14.152 3.24 13 2.76 11.832C2.28 10.648 2.048 9.528 2.064 8.472C2.08 7.752 2.224 7.08 2.496 6.456C2.768 5.832 3.136 5.288 3.6 4.824C4.064 4.36 4.608 3.992 5.232 3.72C5.856 3.448 6.528 3.312 7.248 3.312C8.32 3.312 9.28 3.608 10.128 4.2C10.976 4.776 11.6 5.52 12 6.432C12.4 5.52 13.024 4.776 13.872 4.2C14.72 3.608 15.68 3.312 16.752 3.312Z" fill="#FF7DBB"/>
</svg>
