<svg width="24" height="24" viewBox="0 0 24 24" fill="none" xmlns="http://www.w3.org/2000/svg">
<g clip-path="url(#clip0)">
<path d="M12.816 2.208L20.304 8.496C20.528 8.688 20.72 8.96 20.88 9.312C21.04 9.648 21.12 9.96 21.12 10.248V20.76C21.12 21.064 21.016 21.32 20.808 21.528C20.6 21.736 20.344 21.84 20.04 21.84H14.712V17.064C14.712 16.712 14.64 16.36 14.496 16.008C14.352 15.656 14.152 15.336 13.896 15.048C13.656 14.76 13.368 14.528 13.032 14.352C12.712 14.16 12.368 14.064 12 14.064C11.632 14.064 11.28 14.16 10.944 14.352C10.624 14.528 10.336 14.76 10.08 15.048C9.84 15.336 9.648 15.656 9.504 16.008C9.36 16.36 9.288 16.712 9.288 17.064V21.84H3.96C3.656 21.84 3.4 21.736 3.192 21.528C2.984 21.32 2.88 21.064 2.88 20.76V10.248C2.88 9.96 2.96 9.648 3.12 9.312C3.28 8.96 3.472 8.688 3.696 8.496L11.184 2.208C11.408 2.016 11.68 1.92 12 1.92C12.32 1.92 12.592 2.016 12.816 2.208Z" fill="#3C3C3C"/>
</g>
<defs>
<clipPath id="clip0">
<rect width="24" height="24" fill="white"/>
</clipPath>
</defs>
</svg>
