<svg width="24" height="24" viewBox="0 0 24 24" fill="none" xmlns="http://www.w3.org/2000/svg">
<g clip-path="url(#clip0)">
<path d="M14.424 9.456H20.736C20.928 9.456 21.096 9.528 21.24 9.672C21.384 9.816 21.456 9.984 21.456 10.176V13.584C21.456 13.776 21.384 13.944 21.24 14.088C21.096 14.232 20.928 14.304 20.736 14.304H14.424V20.616C14.424 20.808 14.352 20.976 14.208 21.12C14.064 21.264 13.896 21.336 13.704 21.336H10.296C10.104 21.336 9.936 21.264 9.792 21.12C9.648 20.976 9.576 20.808 9.576 20.616V14.304H3.264C3.072 14.304 2.904 14.232 2.76 14.088C2.616 13.944 2.544 13.776 2.544 13.584V10.176C2.544 9.984 2.616 9.816 2.76 9.672C2.904 9.528 3.072 9.456 3.264 9.456H9.576V3.144C9.576 2.952 9.648 2.784 9.792 2.64C9.936 2.496 10.104 2.424 10.296 2.424H13.704C13.896 2.424 14.064 2.496 14.208 2.64C14.352 2.784 14.424 2.952 14.424 3.144V9.456Z" fill="#3C3C3C"/>
</g>
<defs>
<clipPath id="clip0">
<rect width="24" height="24" fill="white"/>
</clipPath>
</defs>
</svg>
