<svg width="24" height="24" viewBox="0 0 24 24" fill="none" xmlns="http://www.w3.org/2000/svg">
<g clip-path="url(#clip0)">
<path d="M12 2.112C13.344 2.112 14.608 2.368 15.792 2.88C16.992 3.392 18.032 4.088 18.912 4.968C19.792 5.848 20.488 6.888 21 8.088C21.512 9.272 21.768 10.536 21.768 11.88C21.768 13.224 21.512 14.496 21 15.696C20.488 16.88 19.792 17.912 18.912 18.792C18.032 19.672 16.992 20.368 15.792 20.88C14.608 21.392 13.344 21.648 12 21.648C10.656 21.648 9.384 21.392 8.184 20.88C7 20.368 5.968 19.672 5.088 18.792C4.208 17.912 3.512 16.88 3 15.696C2.488 14.496 2.232 13.224 2.232 11.88C2.232 11.608 2.32 11.384 2.496 11.208C2.688 11.016 2.92 10.92 3.192 10.92C3.464 10.92 3.688 11.016 3.864 11.208C4.056 11.384 4.152 11.608 4.152 11.88C4.152 12.968 4.352 13.984 4.752 14.928C5.168 15.872 5.736 16.704 6.456 17.424C7.176 18.144 8.008 18.712 8.952 19.128C9.896 19.528 10.912 19.728 12 19.728C13.088 19.728 14.104 19.528 15.048 19.128C15.992 18.712 16.824 18.144 17.544 17.424C18.264 16.704 18.824 15.872 19.224 14.928C19.64 13.984 19.848 12.968 19.848 11.88C19.848 10.792 19.64 9.776 19.224 8.832C18.824 7.888 18.264 7.056 17.544 6.336C16.824 5.616 15.992 5.056 15.048 4.656C14.104 4.24 13.088 4.032 12 4.032C11.04 4.032 10.128 4.192 9.264 4.512C8.416 4.832 7.656 5.28 6.984 5.856L7.584 6.24C7.856 6.416 7.992 6.624 7.992 6.864C7.992 7.088 7.848 7.28 7.56 7.44L4.176 9.24C3.888 9.4 3.64 9.416 3.432 9.288C3.24 9.16 3.152 8.928 3.168 8.592L3.288 4.776C3.304 4.456 3.416 4.24 3.624 4.128C3.832 4.016 4.072 4.048 4.344 4.224L5.28 4.8C6.16 3.968 7.176 3.312 8.328 2.832C9.48 2.352 10.704 2.112 12 2.112Z" fill="#FB5986"/>
</g>
<defs>
<clipPath id="clip0">
<rect width="24" height="24" fill="white"/>
</clipPath>
</defs>
</svg>
