<svg width="24" height="24" viewBox="0 0 24 24" fill="none" xmlns="http://www.w3.org/2000/svg">
<g clip-path="url(#clip0)">
<path d="M2.088 7.608L3.96 5.736C4.104 5.592 4.272 5.52 4.464 5.52C4.672 5.52 4.848 5.592 4.992 5.736L11.496 12.216C11.608 12.36 11.776 12.432 12 12.432C12.208 12.432 12.376 12.36 12.504 12.216L19.008 5.736C19.152 5.592 19.32 5.52 19.512 5.52C19.72 5.52 19.896 5.592 20.04 5.736L21.912 7.608C22.056 7.752 22.128 7.928 22.128 8.136C22.128 8.328 22.056 8.496 21.912 8.64L12.504 18.024C12.376 18.168 12.208 18.24 12 18.24C11.776 18.24 11.608 18.168 11.496 18.024L2.088 8.64C1.944 8.496 1.872 8.328 1.872 8.136C1.872 7.928 1.944 7.752 2.088 7.608Z" fill="#3C3C3C"/>
</g>
<defs>
<clipPath id="clip0">
<rect width="24" height="24" fill="white"/>
</clipPath>
</defs>
</svg>
