<svg width="24" height="24" viewBox="0 0 24 24" fill="none" xmlns="http://www.w3.org/2000/svg">
<g clip-path="url(#clip0)">
<path d="M12 8.472L16.464 4.008C16.608 3.864 16.776 3.792 16.968 3.792C17.16 3.792 17.328 3.864 17.472 4.008L19.872 6.408C20.016 6.552 20.088 6.72 20.088 6.912C20.088 7.104 20.016 7.272 19.872 7.416L15.408 11.88L19.872 16.344C20.016 16.488 20.088 16.656 20.088 16.848C20.088 17.04 20.016 17.208 19.872 17.352L17.472 19.752C17.328 19.896 17.16 19.968 16.968 19.968C16.776 19.968 16.608 19.896 16.464 19.752L12 15.288L7.536 19.752C7.392 19.896 7.224 19.968 7.032 19.968C6.84 19.968 6.672 19.896 6.528 19.752L4.128 17.352C3.984 17.208 3.912 17.04 3.912 16.848C3.912 16.656 3.984 16.488 4.128 16.344L8.592 11.88L4.128 7.416C3.984 7.272 3.912 7.104 3.912 6.912C3.912 6.72 3.984 6.552 4.128 6.408L6.528 4.008C6.672 3.864 6.84 3.792 7.032 3.792C7.224 3.792 7.392 3.864 7.536 4.008L12 8.472Z" fill="#FB5986"/>
</g>
<defs>
<clipPath id="clip0">
<rect width="24" height="24" fill="white"/>
</clipPath>
</defs>
</svg>
