<svg width="22" height="22" viewBox="0 0 22 22" fill="none" xmlns="http://www.w3.org/2000/svg">
<path d="M6.656 3.44C6.576 3.36 6.536 3.28 6.536 3.2C6.552 3.12 6.576 3.064 6.608 3.032L6.68 2.936H6.704L8.312 1.304C8.456 1.144 8.512 1.016 8.48 0.92C8.448 0.807999 8.32 0.751999 8.096 0.751999L1.592 0.704C1.368 0.704 1.176 0.776 1.016 0.92C0.872 1.064 0.8 1.248 0.8 1.472L0.872 7.976C0.872 8.2 0.92 8.336 1.016 8.384C1.128 8.432 1.264 8.376 1.424 8.216L3.056 6.584L3.152 6.488C3.184 6.456 3.24 6.44 3.32 6.44C3.4 6.44 3.488 6.488 3.584 6.584L6.104 9.104C6.264 9.264 6.456 9.344 6.68 9.344C6.904 9.344 7.088 9.264 7.232 9.104L9.2 7.112C9.36 6.952 9.44 6.768 9.44 6.56C9.44 6.336 9.36 6.144 9.2 5.984L6.656 3.44ZM15.344 3.44C15.424 3.36 15.456 3.28 15.44 3.2C15.44 3.12 15.424 3.064 15.392 3.032L15.32 2.936H15.296L13.688 1.304C13.544 1.144 13.488 1.016 13.52 0.92C13.552 0.807999 13.68 0.751999 13.904 0.751999L20.408 0.704C20.632 0.704 20.816 0.776 20.96 0.92C21.12 1.064 21.2 1.248 21.2 1.472L21.128 7.976C21.128 8.2 21.072 8.336 20.96 8.384C20.864 8.432 20.736 8.376 20.576 8.216L18.944 6.584L18.848 6.488C18.816 6.456 18.76 6.44 18.68 6.44C18.6 6.44 18.512 6.488 18.416 6.584L15.896 9.104C15.736 9.264 15.544 9.344 15.32 9.344C15.096 9.344 14.912 9.264 14.768 9.104L12.8 7.112C12.64 6.952 12.56 6.768 12.56 6.56C12.56 6.336 12.64 6.144 12.8 5.984L15.344 3.44ZM6.656 18.32C6.576 18.4 6.536 18.48 6.536 18.56C6.552 18.64 6.576 18.696 6.608 18.728L6.68 18.824H6.704L8.312 20.432C8.472 20.592 8.528 20.728 8.48 20.84C8.448 20.952 8.32 21.008 8.096 21.008L1.592 21.056C1.368 21.056 1.176 20.984 1.016 20.84C0.872 20.696 0.8 20.512 0.8 20.288L0.872 13.784C0.872 13.56 0.92 13.424 1.016 13.376C1.128 13.328 1.264 13.384 1.424 13.544L3.056 15.176L3.152 15.272C3.184 15.304 3.24 15.328 3.32 15.344C3.4 15.344 3.488 15.288 3.584 15.176L6.104 12.656C6.264 12.496 6.456 12.416 6.68 12.416C6.904 12.416 7.088 12.496 7.232 12.656L9.2 14.648C9.36 14.808 9.44 15 9.44 15.224C9.44 15.432 9.36 15.616 9.2 15.776L6.656 18.32ZM15.344 18.32C15.424 18.4 15.456 18.48 15.44 18.56C15.44 18.64 15.424 18.696 15.392 18.728L15.32 18.824H15.296L13.688 20.432C13.528 20.592 13.464 20.728 13.496 20.84C13.544 20.952 13.68 21.008 13.904 21.008L20.408 21.056C20.632 21.056 20.816 20.984 20.96 20.84C21.12 20.696 21.2 20.512 21.2 20.288L21.128 13.784C21.128 13.56 21.072 13.424 20.96 13.376C20.864 13.328 20.736 13.384 20.576 13.544L18.944 15.176L18.848 15.272C18.816 15.304 18.76 15.328 18.68 15.344C18.6 15.344 18.512 15.288 18.416 15.176L15.896 12.656C15.736 12.496 15.544 12.416 15.32 12.416C15.096 12.416 14.912 12.496 14.768 12.656L12.8 14.648C12.64 14.808 12.56 15 12.56 15.224C12.56 15.432 12.64 15.616 12.8 15.776L15.344 18.32Z" fill="#FB5986"/>
</svg>
