<svg width="24" height="24" viewBox="0 0 24 24" fill="none" xmlns="http://www.w3.org/2000/svg">
<g clip-path="url(#clip0)">
<path d="M14.304 20.4H16.44V22.824H7.824V20.4H9.864C9.992 20.4 10.08 20.392 10.128 20.376C10.176 20.36 10.216 20.344 10.248 20.328C10.296 20.28 10.32 20.16 10.32 19.968V12C10.32 11.776 10.296 11.624 10.248 11.544C10.2 11.464 10.16 11.408 10.128 11.376C9.952 11.232 9.68 11.16 9.312 11.16H7.56V8.76L13.992 8.592V20.184C13.992 20.216 13.992 20.248 13.992 20.28C14.008 20.296 14.016 20.312 14.016 20.328C14.064 20.376 14.16 20.4 14.304 20.4ZM11.784 5.88C11.112 5.88 10.536 5.64 10.056 5.16C9.56 4.664 9.312 4.088 9.312 3.432C9.312 2.792 9.56 2.208 10.056 1.68C10.552 1.184 11.128 0.935999 11.784 0.935999C12.44 0.935999 13.016 1.184 13.512 1.68C14.008 2.208 14.256 2.792 14.256 3.432C14.256 4.104 14.016 4.68 13.536 5.16C13.056 5.64 12.472 5.88 11.784 5.88Z" fill="#3C3C3C"/>
</g>
<defs>
<clipPath id="clip0">
<rect width="24" height="24" fill="white"/>
</clipPath>
</defs>
</svg>
